<svg xmlns="http://www.w3.org/2000/svg" width="143" height="49" viewBox="0 0 143 49"><g><g><g><g><g><path fill="#1b9546" d="M0 17.11C0 7.66 7.66 0 17.11 0s17.11 7.66 17.11 17.11-7.66 17.11-17.11 17.11S0 26.56 0 17.11z"/></g><g><path fill="#fff" d="M15.976 9.142c-.1 0-.201.101-.355.202-.15.15-.201.355-.201.753v1.81a24.486 24.486 0 0 0-1.708-.603c-.501-.202-.954-.355-1.356-.502a5.72 5.72 0 0 1-.955-.452 2.722 2.722 0 0 0-.1-.753c-.05-.151-.25-.251-.552-.251-.402 0-.603.251-.603.703 0 .354.805.851 2.413 1.457 1.608.605 3.365 1.155 5.275 1.707 1.909.552 3.264.904 3.968 1.055 1.07.357 2.06.92 2.914 1.658a6.784 6.784 0 0 1 1.758 2.412c.37.962.558 1.985.552 3.016a5.49 5.49 0 0 1-.851 3.065 4.836 4.836 0 0 1-2.26 1.858 7.344 7.344 0 0 1-3.017.604c-.251 0-.855-.05-1.81-.151a27.455 27.455 0 0 0-2.914-.152c-.552 0-1.306.05-2.413.1-1.054.05-1.909.1-2.511.1a12.016 12.016 0 0 1-2.011-.25c-.805-.152-1.256-.403-1.256-.654 0-.201.1-.355.355-.552a5.596 5.596 0 0 1 1.005-.552 129.22 129.22 0 0 1 2.111-.905V12.858l4.02 1.611V21.4a1.363 1.363 0 0 0 1.557 1.557c.202.005.404-.012.602-.05.2-.037.401-.054.604-.05.185-.002.37.015.552.05.251 0 .402.05.552.05 1.959 0 2.964-1.105 2.964-3.365a3.974 3.974 0 0 0-1.106-2.913 7.665 7.665 0 0 0-2.712-1.758l-6.38-2.413a89.766 89.766 0 0 1-3.265-1.357 7.324 7.324 0 0 1-1.609-1.054 1.445 1.445 0 0 1-.448-1.053c0-1.005 1.155-1.507 3.516-1.507h11.603a7.239 7.239 0 0 1 2.058.201c.44.13.732.548.703 1.006a1.08 1.08 0 0 1-.1.502c-.1.1-.202.251-.403.452-.2.2-.251.302-.251.451a.668.668 0 0 0 .151.403l.15.15a1.716 1.716 0 0 1-.804.202 1.803 1.803 0 0 1-1.105-.301 6.202 6.202 0 0 1-1.006-1.006c-.355-.355-1.256-.552-2.763-.552h-2.558z"/></g></g></g><g><path fill="#fff" d="M139.716 22.723h-3.172v-9.222h-3.343v-2.75h9.865v2.75h-3.348zm-13.382-2.503a2.05 2.05 0 0 0 1.759-.967 4.36 4.36 0 0 0 .67-2.527 4.31 4.31 0 0 0-.67-2.504 2.048 2.048 0 0 0-1.76-.966 2.25 2.25 0 0 0-1.214.396c-.388.24-.71.572-.939.967v4.24c.229.395.551.727.94.967.358.246.781.383 1.217.394zm-7.482-6.966c-.71-.001-1.37.364-1.746.966a4.293 4.293 0 0 0-.682 2.528c-.04.885.199 1.76.682 2.503a2.058 2.058 0 0 0 1.747.967c.439-.008.866-.146 1.227-.397.386-.246.713-.576.953-.966v-4.239a2.736 2.736 0 0 0-.953-.966 2.307 2.307 0 0 0-1.23-.394zm-1.016-2.8c1.31.02 2.516.713 3.194 1.833V6.194h3.15v6.072a3.737 3.737 0 0 1 3.194-1.81 3.974 3.974 0 0 1 3.309 1.675 7.41 7.41 0 0 1 1.274 4.597 7.469 7.469 0 0 1-1.274 4.613 3.966 3.966 0 0 1-3.315 1.68 3.725 3.725 0 0 1-3.194-1.834v6.096h-3.144v-6.096a3.686 3.686 0 0 1-3.194 1.832 3.974 3.974 0 0 1-3.308-1.675 7.411 7.411 0 0 1-1.274-4.597 7.468 7.468 0 0 1 1.274-4.613 3.967 3.967 0 0 1 3.308-1.68zm-14.493 8.771a3.004 3.004 0 0 0 4.471-.014c.566-.704.86-1.588.83-2.491a3.74 3.74 0 0 0-.83-2.466 2.759 2.759 0 0 0-2.243-1.005 2.722 2.722 0 0 0-2.23 1.005 3.776 3.776 0 0 0-.818 2.466c-.03.905.258 1.793.815 2.507zm6.835 1.984h.001v-.001zm-9.204-.012a6.265 6.265 0 0 1-1.722-4.471 6.22 6.22 0 0 1 1.722-4.462 6.759 6.759 0 0 1 9.206 0 6.196 6.196 0 0 1 1.735 4.462 6.284 6.284 0 0 1-1.736 4.483 6.742 6.742 0 0 1-9.205-.012zm-9.406 1.82a8.762 8.762 0 0 1-6.282-2.39 8.12 8.12 0 0 1-2.515-6.16 8.12 8.12 0 0 1 2.515-6.157 8.76 8.76 0 0 1 6.283-2.393 7.44 7.44 0 0 1 6.913 4.041l-3.024 1.487a4.554 4.554 0 0 0-1.599-1.721 4.14 4.14 0 0 0-2.292-.682 4.908 4.908 0 0 0-3.717 1.537 5.418 5.418 0 0 0-1.462 3.888 5.417 5.417 0 0 0 1.462 3.887 4.908 4.908 0 0 0 3.717 1.537c.813.003 1.61-.23 2.292-.67a4.417 4.417 0 0 0 1.6-1.728l3.023 1.462a7.536 7.536 0 0 1-6.914 4.063zm-9.643-.295h-3.519l-2.726-4.038-2.751 4.04h-3.495l4.238-6.148-3.99-5.824h3.52l2.483 3.69 2.454-3.69h3.518l-4.016 5.824zm-24.06 4.684l.47-2.825c.313.136.652.204.994.2a1.632 1.632 0 0 0 1.66-.867l.447-1.018-4.857-12.144h3.37l3.123 8.327 3.123-8.327h3.395l-5.63 13.927a4.151 4.151 0 0 1-1.736 2.218 5.985 5.985 0 0 1-2.8.678 6.435 6.435 0 0 1-1.558-.17zM46.416 15.31v4.313h3.816a2.43 2.43 0 0 0 1.697-.594 2.2 2.2 0 0 0 0-3.136 2.462 2.462 0 0 0-1.697-.583zm-3.52-9.116H54.96v3.097h-8.545v2.925h4.29a5.323 5.323 0 0 1 4.014 1.511c.97 1 1.496 2.348 1.46 3.74a5.176 5.176 0 0 1-1.463 3.742 5.328 5.328 0 0 1-4.015 1.514h-7.806z"/></g><g><path fill="#fff" d="M141.407 47.664c.478 0 .832-.16 1.06-.479v-.725c-.228-.32-.582-.479-1.06-.479-.277 0-.504.078-.682.235a.775.775 0 0 0-.267.61c0 .245.089.446.267.603.178.156.405.235.682.235zm1.659.335h-.598v-.439c-.325.356-.75.534-1.276.534-.357 0-.67-.114-.942-.343-.27-.228-.406-.54-.406-.933 0-.404.134-.716.403-.937.268-.22.583-.33.945-.33.547 0 .972.175 1.276.526v-.694c0-.255-.09-.455-.272-.598-.18-.144-.414-.215-.701-.215-.452 0-.846.178-1.18.534l-.28-.415c.41-.425.923-.638 1.54-.638.44 0 .8.106 1.076.32.276.212.415.539.415.98zm-5.256.095c-.569 0-1.031-.192-1.387-.578-.357-.385-.535-.868-.535-1.447 0-.58.178-1.06.535-1.444.356-.382.818-.574 1.387-.574.596 0 1.066.223 1.412.67l-.399.367a1.155 1.155 0 0 0-.98-.503c-.405 0-.728.139-.97.415-.242.277-.363.633-.363 1.069 0 .436.121.793.363 1.072.242.28.565.42.97.42.403 0 .73-.168.98-.503l.399.367c-.346.446-.816.67-1.412.67zm-3.254-2.264a1.394 1.394 0 0 0-.335-.89c-.218-.263-.529-.394-.933-.394-.382 0-.684.13-.905.39-.22.26-.339.559-.355.894zm-1.196 2.264c-.574 0-1.045-.187-1.411-.562-.367-.375-.55-.862-.55-1.463 0-.564.18-1.04.542-1.432a1.77 1.77 0 0 1 1.355-.586c.57 0 1.02.196 1.352.586.332.391.499.884.499 1.48v.151h-3.119c.027.378.165.694.415.95.25.254.574.382.973.382.479 0 .875-.162 1.188-.486l.287.39c-.393.394-.903.59-1.53.59zM127.818 48h-.598v-3.852h.598v1.603h2.01v-1.603h.597v3.852h-.598v-1.723h-2.01zm-3.334.095c-.739 0-1.318-.21-1.738-.63l.295-.382c.361.345.842.518 1.443.518.346 0 .62-.061.826-.183.204-.123.307-.285.307-.487 0-.425-.405-.638-1.213-.638h-.86v-.486h.86c.335 0 .61-.055.822-.164.212-.109.319-.27.319-.482 0-.181-.107-.329-.32-.443-.212-.114-.48-.171-.805-.171-.537 0-.967.164-1.292.494l-.31-.367c.398-.41.924-.614 1.578-.614.527-.005.953.084 1.28.267.327.184.49.438.49.762a.776.776 0 0 1-.322.646 1.446 1.446 0 0 1-.714.295c.271.021.525.112.762.271.236.16.355.383.355.67 0 .33-.159.6-.475.81-.316.21-.746.314-1.288.314zM119.292 48h-.574v-3.852h.598v2.943l2.018-2.943h.59v3.852h-.598V45zm-3.493.095c-.58 0-1.042-.204-1.387-.614-.346-.409-.519-.938-.519-1.587 0-.914.165-1.59.495-2.03.33-.438.837-.702 1.523-.793.41-.064.693-.125.85-.183.156-.059.235-.128.235-.208h.582a.587.587 0 0 1-.136.387.91.91 0 0 1-.387.26 3.759 3.759 0 0 1-.47.147c-.146.035-.32.065-.522.092-.532.074-.916.22-1.153.438-.236.218-.392.508-.466.87.35-.548.834-.822 1.451-.822.532 0 .965.194 1.3.582.335.388.502.864.502 1.428 0 .574-.172 1.056-.518 1.447-.346.391-.805.586-1.38.586zm-.94-.965c.233.288.547.431.94.431.394 0 .705-.145.933-.435.23-.29.343-.644.343-1.064 0-.41-.114-.758-.343-1.045-.228-.287-.54-.43-.933-.43s-.705.143-.937.43c-.23.287-.347.635-.347 1.045 0 .42.115.776.343 1.068zm-6.62 0c.234.288.548.431.941.431.394 0 .705-.145.933-.435.229-.29.343-.641.343-1.056 0-.415-.114-.766-.343-1.053-.228-.287-.54-.43-.933-.43s-.706.144-.937.434c-.231.29-.347.64-.347 1.049 0 .414.115.768.343 1.06zm2.32.383c-.345.388-.805.582-1.379.582s-1.035-.194-1.383-.582c-.349-.388-.523-.869-.523-1.443 0-.574.174-1.054.523-1.44.348-.385.81-.578 1.383-.578.574 0 1.036.193 1.384.578.348.386.522.866.522 1.44s-.175 1.055-.526 1.443zm-3.843-3.365v.526h-2.097V48h-.599v-3.852zm-6.515 2.982c.233.288.547.431.94.431.394 0 .705-.145.934-.435.228-.29.343-.641.343-1.056 0-.415-.115-.766-.343-1.053-.229-.287-.54-.43-.933-.43-.394 0-.706.144-.938.434-.23.29-.346.64-.346 1.049 0 .414.114.768.343 1.06zm2.32.383c-.345.388-.805.582-1.38.582-.574 0-1.035-.194-1.383-.582-.348-.388-.522-.869-.522-1.443 0-.574.174-1.054.522-1.44.348-.385.81-.578 1.384-.578.574 0 1.035.193 1.383.578.348.386.523.866.523 1.44s-.176 1.055-.527 1.443zm-7.919.582V47.6c.18 0 .33-.12.447-.359.117-.24.212-.638.287-1.196l.247-1.898h2.68v3.852h-.599v-3.326H96.11l-.175 1.444c-.085.707-.234 1.213-.447 1.519a1.02 1.02 0 0 1-.885.458zm-2.4-.43c.478 0 .832-.16 1.06-.479v-.725c-.228-.32-.582-.479-1.06-.479-.277 0-.504.078-.682.235a.775.775 0 0 0-.267.61c0 .245.089.446.267.603.178.156.405.235.682.235zm1.658.335h-.598v-.439c-.324.356-.75.534-1.276.534-.356 0-.67-.114-.94-.343-.272-.228-.407-.54-.407-.933 0-.404.134-.716.402-.937.269-.22.584-.33.945-.33.548 0 .973.175 1.276.526v-.694c0-.255-.09-.455-.27-.598-.182-.144-.416-.215-.703-.215-.452 0-.845.178-1.18.534l-.279-.415c.41-.425.922-.638 1.54-.638.44 0 .8.106 1.076.32.276.212.414.539.414.98zm-4.202 0h-.598v-3.023L87.807 48h-.223l-1.26-3.023V48h-.598v-3.852h.79l1.18 2.855 1.164-2.855h.798zm-9.156-2.018h1.372v-1.308h-1.372c-.207 0-.37.06-.49.18a.641.641 0 0 0-.18.474.65.65 0 0 0 .176.475c.117.12.282.18.494.18zM79.88 48h-.701l1.028-1.516a1.105 1.105 0 0 1-.713-.366c-.184-.208-.276-.47-.276-.79 0-.34.11-.622.327-.845.218-.224.516-.335.894-.335h2.033v3.852h-.598v-1.492h-1.053zm-5.43.095V47.6c.18 0 .33-.12.446-.359.117-.24.213-.638.287-1.196l.247-1.898h2.68v3.852h-.598v-3.326h-1.555l-.176 1.444c-.085.707-.234 1.213-.446 1.519a1.02 1.02 0 0 1-.886.458zm-2.967-3.42l-.176 1.443c-.09.675-.276 1.127-.558 1.355h2.289v-2.799zm-1.507 4.306v-1.476c.196-.037.35-.155.462-.355.112-.199.202-.567.271-1.104l.247-1.898h2.68v3.325h.447v1.508h-.599v-.981h-2.91v.98zm-5.423-1.85c.234.287.547.43.94.43.394 0 .705-.145.934-.435.228-.29.343-.641.343-1.056 0-.415-.115-.766-.343-1.053-.229-.287-.54-.43-.933-.43-.394 0-.706.144-.937.434-.232.29-.347.64-.347 1.049 0 .414.114.768.343 1.06zm2.32.382c-.345.388-.805.582-1.38.582-.574 0-1.035-.194-1.383-.582-.348-.388-.522-.869-.522-1.443 0-.574.174-1.054.522-1.44.348-.385.81-.578 1.384-.578.574 0 1.035.193 1.383.578.349.386.523.866.523 1.44s-.176 1.055-.527 1.443zM63.101 48h-.765l-1.388-1.73-.638.63v1.1h-.598v-3.852h.598v2.05l2.026-2.05h.757l-1.706 1.746zm-5.574-1.835h-1.38v1.308h1.38c.212 0 .376-.06.49-.18a.658.658 0 0 0 .172-.474.658.658 0 0 0-.172-.474c-.114-.12-.278-.18-.49-.18zm-1.978-2.017h.598v1.491h1.443c.383 0 .681.113.894.34.212.225.319.505.319.84 0 .335-.108.616-.323.842-.216.226-.512.339-.89.339H55.55zm-4.857 3.947V47.6c.181 0 .33-.12.447-.359.117-.24.212-.638.287-1.196l.247-1.898h2.68v3.852h-.598v-3.326h-1.556l-.175 1.444c-.085.707-.234 1.213-.447 1.519a1.02 1.02 0 0 1-.885.458zm-3.365-.965c.234.288.547.431.94.431.394 0 .705-.145.934-.435.229-.29.343-.641.343-1.056 0-.415-.114-.766-.343-1.053-.229-.287-.54-.43-.933-.43-.394 0-.706.144-.937.434-.231.29-.347.64-.347 1.049 0 .414.114.768.343 1.06zm2.32.383c-.345.388-.805.582-1.38.582-.573 0-1.035-.194-1.383-.582-.348-.388-.522-.869-.522-1.443 0-.574.174-1.054.522-1.44.348-.385.81-.578 1.384-.578.574 0 1.035.193 1.383.578.349.386.523.866.523 1.44s-.176 1.055-.527 1.443zM44.68 48h-.598v-3.326h-1.116v-.526h2.839v.526h-1.125zm91.544-9.805c.479 0 .832-.16 1.06-.479v-.726c-.228-.319-.581-.478-1.06-.478-.276 0-.504.078-.682.235a.775.775 0 0 0-.267.61c0 .245.09.445.267.602.178.157.406.236.682.236zm1.659.335h-.598v-.44c-.324.357-.75.535-1.276.535-.356 0-.67-.114-.941-.343-.271-.228-.407-.54-.407-.933 0-.404.134-.716.403-.937.268-.22.583-.33.945-.33.547 0 .973.175 1.276.526v-.694c0-.255-.09-.455-.271-.598-.181-.144-.415-.216-.702-.216-.452 0-.845.178-1.18.535l-.28-.415c.41-.425.923-.638 1.54-.638.44 0 .8.106 1.076.319.277.213.415.54.415.98zm-4.203 0h-.598v-3.023l-1.252 3.023h-.223l-1.26-3.023v3.023h-.598v-3.852h.79l1.18 2.855 1.164-2.855h.797zm-5.128 0h-.598v-3.023l-1.252 3.023h-.223l-1.26-3.023v3.023h-.598v-3.852h.79l1.18 2.855 1.164-2.855h.797zm-6.786-.335c.478 0 .832-.16 1.06-.479v-.726c-.228-.319-.582-.478-1.06-.478-.277 0-.504.078-.682.235a.775.775 0 0 0-.267.61c0 .245.089.445.267.602.178.157.405.236.682.236zm1.658.335h-.598v-.44c-.324.357-.75.535-1.276.535-.356 0-.67-.114-.94-.343-.272-.228-.407-.54-.407-.933 0-.404.134-.716.402-.937.269-.22.584-.33.945-.33.548 0 .973.175 1.276.526v-.694c0-.255-.09-.455-.27-.598-.182-.144-.415-.216-.703-.216-.451 0-.845.178-1.18.535l-.279-.415c.41-.425.922-.638 1.54-.638.44 0 .8.106 1.076.319.276.213.414.54.414.98zm-5.821-.44c.377 0 .678-.139.9-.418.224-.279.336-.636.336-1.072 0-.436-.112-.793-.335-1.07-.223-.276-.524-.414-.901-.414-.229 0-.45.06-.666.18a1.29 1.29 0 0 0-.483.434v1.739c.107.175.268.323.483.442.215.12.437.18.666.18zm.151.535c-.542 0-.975-.226-1.3-.678v2.05h-.598v-5.32h.598v.575a1.597 1.597 0 0 1 1.3-.67c.51 0 .924.182 1.24.546.317.364.475.855.475 1.472 0 .616-.158 1.108-.475 1.475-.316.367-.73.55-1.24.55zm-2.68-3.947v.526h-2.097v3.326h-.598v-3.852zm-6.515 2.982c.234.287.548.43.941.43.394 0 .705-.144.933-.434.229-.29.343-.642.343-1.056 0-.415-.114-.766-.343-1.053-.228-.287-.54-.43-.933-.43s-.706.144-.937.434c-.231.29-.347.64-.347 1.049 0 .414.115.768.343 1.06zm2.32.383c-.345.388-.805.582-1.379.582s-1.035-.194-1.383-.582c-.349-.388-.523-.87-.523-1.443 0-.575.174-1.054.523-1.44.348-.385.81-.578 1.383-.578.574 0 1.036.193 1.384.578.348.386.522.865.522 1.44 0 .574-.175 1.055-.526 1.443zm-5.877.048c.378 0 .678-.14.902-.419.223-.279.335-.636.335-1.072 0-.436-.112-.793-.335-1.07-.224-.276-.524-.414-.902-.414-.228 0-.45.06-.666.18a1.29 1.29 0 0 0-.482.434v1.739c.106.175.267.323.482.442.216.12.438.18.666.18zm.152.534c-.542 0-.976-.226-1.3-.678v2.05h-.598v-5.32h.598v.575a1.597 1.597 0 0 1 1.3-.67c.51 0 .924.182 1.24.546.316.364.475.855.475 1.472 0 .616-.159 1.108-.475 1.475-.316.367-.73.55-1.24.55zm-3.094-.095h-.599v-3.326h-2.01v3.326h-.597v-3.852h3.206zM95 36.51v-1.308h-1.372c-.207 0-.37.06-.49.18a.641.641 0 0 0-.18.474.65.65 0 0 0 .176.474c.117.12.281.18.494.18zm-1.994 2.018h-.702l1.03-1.516a1.105 1.105 0 0 1-.715-.367c-.183-.207-.275-.47-.275-.79 0-.34.11-.621.327-.844.218-.224.516-.335.893-.335H95.6v3.851h-.598v-1.49h-1.053zm-3.43-.335c.48 0 .833-.16 1.062-.479v-.726c-.229-.319-.583-.478-1.061-.478-.277 0-.504.078-.682.235a.775.775 0 0 0-.267.61c0 .245.089.445.267.602.178.157.405.236.682.236zm1.66.335h-.598v-.44c-.325.357-.75.535-1.276.535-.357 0-.67-.114-.941-.343-.272-.228-.407-.54-.407-.933 0-.404.134-.716.403-.937.268-.22.583-.33.945-.33.547 0 .973.175 1.276.526v-.694c0-.255-.09-.455-.272-.598-.18-.144-.414-.216-.701-.216-.452 0-.846.178-1.18.535l-.28-.415c.41-.425.923-.638 1.54-.638.44 0 .8.106 1.076.319.276.213.415.54.415.98zm-3.717 0h-.765l-1.388-1.731-.638.63v1.1h-.598v-3.851h.598v2.05l2.026-2.05h.757l-1.706 1.746zm-5.638.095c-.569 0-1.031-.193-1.388-.578-.356-.385-.534-.868-.534-1.447 0-.58.178-1.061.534-1.444.357-.383.82-.574 1.388-.574.596 0 1.066.223 1.412.67l-.4.367a1.155 1.155 0 0 0-.98-.503c-.404 0-.727.138-.969.415-.242.276-.363.633-.363 1.069 0 .436.121.793.363 1.072.242.28.565.419.969.419s.731-.168.98-.503l.4.367c-.346.447-.816.67-1.412.67zm-4.514-.534c.378 0 .678-.14.901-.419.224-.279.335-.636.335-1.072 0-.436-.111-.793-.335-1.07-.223-.276-.523-.414-.9-.414-.23 0-.451.06-.667.18a1.29 1.29 0 0 0-.482.434v1.739c.106.175.267.323.482.442.216.12.438.18.666.18zm.152.534c-.542 0-.976-.226-1.3-.678v2.05h-.598v-5.32h.598v.575a1.597 1.597 0 0 1 1.3-.67c.51 0 .924.182 1.24.546.316.364.474.855.474 1.472 0 .616-.158 1.108-.474 1.475-.316.367-.73.55-1.24.55zm-3.453-2.265a1.394 1.394 0 0 0-.335-.889c-.218-.263-.53-.395-.933-.395-.383 0-.685.13-.906.391-.22.26-.338.558-.354.893zm-1.197 2.265c-.574 0-1.044-.187-1.411-.562-.367-.375-.55-.863-.55-1.463 0-.564.18-1.041.542-1.432a1.77 1.77 0 0 1 1.356-.586c.569 0 1.02.195 1.351.586.333.39.499.884.499 1.48v.15h-3.118c.026.378.164.695.414.95.25.255.575.383.973.383.479 0 .875-.162 1.189-.487l.287.391c-.394.393-.904.59-1.532.59zm-3.644-.095h-.598v-3.326H67.51v-.526h2.84v.526h-1.125zm-6.157.095v-.494c.181 0 .33-.12.447-.36.117-.238.213-.637.287-1.195l.247-1.898h2.68v3.852h-.598v-3.326h-1.555l-.176 1.443c-.085.708-.234 1.214-.447 1.52a1.02 1.02 0 0 1-.885.458zm-2.4-.43c.478 0 .832-.16 1.06-.479v-.726c-.228-.319-.582-.478-1.06-.478-.277 0-.504.078-.682.235a.775.775 0 0 0-.267.61c0 .245.089.445.267.602.178.157.405.236.682.236zm1.659.335h-.599v-.44c-.324.357-.75.535-1.275.535-.357 0-.67-.114-.942-.343-.27-.228-.406-.54-.406-.933 0-.404.134-.716.402-.937.269-.22.584-.33.946-.33.547 0 .972.175 1.275.526v-.694c0-.255-.09-.455-.27-.598-.181-.144-.415-.216-.702-.216-.452 0-.846.178-1.18.535l-.28-.415c.41-.425.923-.638 1.54-.638.44 0 .8.106 1.076.319.276.213.415.54.415.98zm-3.788-3.852v.526h-2.098v3.326h-.598v-3.852zm-3.382 3.852h-.694l-1.156-1.58-1.156 1.58h-.686l1.475-1.978-1.395-1.874h.693l1.069 1.467 1.069-1.467h.693l-1.395 1.874zm-7.313 1.507l.096-.543a.797.797 0 0 0 .327.064.62.62 0 0 0 .343-.087c.09-.059.167-.165.231-.32l.255-.582-1.61-3.891h.645l1.284 3.158 1.276-3.158h.654l-1.93 4.633c-.212.51-.59.771-1.132.782-.16 0-.306-.019-.439-.056zm-2.384-4.123h-1.396v2.025h1.396c.313 0 .569-.094.765-.283a.966.966 0 0 0 .295-.73.966.966 0 0 0-.295-.73c-.196-.188-.452-.282-.765-.282zm-2.058-2.704h3.453v.59h-2.79v1.524h1.474c.51 0 .916.154 1.217.462.3.309.45.689.45 1.14 0 .452-.149.833-.446 1.141-.298.308-.705.463-1.22.463h-2.138z"/></g></g></g></svg>