<svg xmlns="http://www.w3.org/2000/svg" width="17" height="16" viewBox="0 0 17 16"><g><g><path fill="#fff" d="M13.153 12.8c-.88 0-1.592.72-1.592 1.6 0 .88.712 1.6 1.592 1.6.88 0 1.6-.72 1.6-1.6 0-.88-.72-1.6-1.6-1.6zm-8.001 0c-.88 0-1.592.72-1.592 1.6 0 .88.712 1.6 1.592 1.6.88 0 1.6-.72 1.6-1.6 0-.88-.72-1.6-1.6-1.6zM4.48 3.2h9.72l-2.207 4H6.376zm7.513 5.6c.6 0 1.128-.328 1.4-.824l2.864-5.192a.797.797 0 0 0-.696-1.184H3.72L2.968 0H.352v1.6h1.6l2.88 6.072-1.08 1.952C3.168 10.696 3.936 12 5.152 12h9.6v-1.6h-9.6l.88-1.6z"/></g></g></svg>