<svg width="141" height="64" viewBox="0 0 141 64" fill="none" xmlns="http://www.w3.org/2000/svg">
<path d="M27.9186 57.4941C12.723 57.1846 0.5 44.7697 0.5 29.5C0.5 14.036 13.036 1.5 28.5 1.5C43.7899 1.5 56.2175 13.7554 56.4953 28.979C50.9795 28.7693 46.743 29.0944 43.1784 30.1114C39.4889 31.1639 36.5471 32.9495 33.6619 35.5982C31.0094 38.0332 29.3562 42.1668 28.483 46.3782C27.6615 50.3405 27.5118 54.4631 27.9186 57.4941Z" fill="white" stroke="#EBEBEB"/>
<path d="M7.30009 3.8501C6.86008 2.97008 4.91669 1.28337 4 0.550015L10.6002 3.8501L9.50015 0C9.50015 0 14.8474 2.49903 17.2004 4.40012C19.4004 6.05016 20.5004 7.15019 21.6005 8.80024C22.7005 10.4503 29.7407 16.7204 31.5007 17.6005C34.8008 19.2505 36.8062 16.8843 40.0155 17.6005C41.9872 18.0405 43.2274 19.6172 43.6011 20.3505C44.1511 20.5339 46.7489 21.0331 48.0012 21.4506C49.6512 22.0006 51.8513 22.5506 55.1514 25.3007C55.1514 25.3007 51.3013 23.6506 48.5512 23.1006C45.8011 22.5506 44.1511 22.5506 44.1511 22.5506C40.851 22.0006 41.5762 22.5068 39.2009 23.1006C37.0666 23.6342 36.1366 24.2007 32.6008 29.1508C29.8507 33.0009 29.8507 32.4509 25.4506 35.751C19.4004 42.9012 20.0526 43.7458 18.8504 46.7513C17.9704 48.9513 15.367 58.3016 15.0003 59.9516C15.0003 59.4016 16.2103 54.2315 16.6503 51.1514C17.0904 48.0713 18.6671 43.6345 19.9504 40.1511L16.1003 47.8513L19.4004 37.951L24.9006 25.8507C22.5172 23.834 18.3004 20.3505 15.5503 17.6005C13.3503 15.4004 7.8501 4.95013 7.30009 3.8501Z" fill="#0083CC"/>
<path d="M7.30009 3.8501C6.86008 2.97008 4.91669 1.28337 4 0.550015L11.7002 3.8501L17.2004 8.25022L21.0505 12.6503L23.2505 14.8504C28.7507 17.6005 29.8507 18.7005 32.6008 18.7005C37.0009 18.1505 37.5509 17.0505 40.0155 17.6005C41.9872 18.0405 43.2274 19.6172 43.6011 20.3505C44.1511 20.5339 46.7489 21.0331 48.0012 21.4506C49.6512 22.0006 51.8513 22.5506 55.1514 25.3007C55.1514 25.3007 51.3013 23.6506 48.5512 23.1006C45.8011 22.5506 44.1511 22.5506 44.1511 22.5506C40.851 22.0006 41.5762 22.5068 39.2009 23.1006C37.0666 23.6342 36.1366 24.2006 32.6008 29.1508C29.8507 33.0009 29.8507 32.4509 25.4506 35.751C19.4004 42.9012 20.0526 43.7458 18.8504 46.7513C17.9704 48.9513 15.367 58.3016 15.0003 59.9516C15.0003 59.4016 16.2103 54.2315 16.6503 51.1514C17.0904 48.0713 18.6671 43.6345 19.9504 40.1511L16.1003 47.8513L19.4004 37.951L24.9006 25.8507C22.5172 23.834 18.3004 20.3505 15.5503 17.6005C13.3503 15.4004 7.8501 4.95013 7.30009 3.8501Z" fill="url(#paint0_linear_201_4)"/>
<path d="M52.076 63.432C56.936 63.432 59.888 60.912 61.724 58.032L58.124 56.196C56.972 58.212 54.668 59.688 52.076 59.688C47.324 59.688 43.796 56.052 43.796 51.012C43.796 45.972 47.324 42.336 52.076 42.336C54.668 42.336 56.972 43.848 58.124 45.828L61.724 43.992C59.924 41.112 56.936 38.592 52.076 38.592C44.984 38.592 39.476 43.632 39.476 51.012C39.476 58.392 44.984 63.432 52.076 63.432ZM72.8351 63.432C78.4151 63.432 81.7991 59.292 81.7991 54.288C81.7991 49.32 78.4151 45.18 72.8351 45.18C67.3271 45.18 63.9071 49.32 63.9071 54.288C63.9071 59.292 67.3271 63.432 72.8351 63.432ZM72.8351 60.084C69.6311 60.084 67.8311 57.384 67.8311 54.288C67.8311 51.228 69.6311 48.528 72.8351 48.528C76.0751 48.528 77.8751 51.228 77.8751 54.288C77.8751 57.384 76.0751 60.084 72.8351 60.084ZM89.4038 63V38.988H85.6238V63H89.4038ZM96.1794 43.488C97.4754 43.488 98.5194 42.444 98.5194 41.148C98.5194 39.852 97.4754 38.808 96.1794 38.808C94.9194 38.808 93.8394 39.852 93.8394 41.148C93.8394 42.444 94.9194 43.488 96.1794 43.488ZM98.0874 63V45.612H94.3074V63H98.0874ZM106.771 57.78V50.904C107.599 49.608 109.471 48.528 111.235 48.528C114.259 48.528 116.167 50.94 116.167 54.324C116.167 57.708 114.259 60.084 111.235 60.084C109.471 60.084 107.599 59.076 106.771 57.78ZM106.771 63V60.624C108.103 62.352 110.083 63.432 112.351 63.432C116.779 63.432 120.055 60.048 120.055 54.324C120.055 48.708 116.815 45.18 112.351 45.18C110.155 45.18 108.139 46.188 106.771 48.024V38.988H102.991V63H106.771ZM127.689 63V51.156C128.445 49.932 130.569 48.852 132.153 48.852C132.621 48.852 133.017 48.888 133.341 48.96V45.216C131.073 45.216 128.985 46.512 127.689 48.168V45.612H123.909V63H127.689ZM138.261 43.488C139.557 43.488 140.601 42.444 140.601 41.148C140.601 39.852 139.557 38.808 138.261 38.808C137.001 38.808 135.921 39.852 135.921 41.148C135.921 42.444 137.001 43.488 138.261 43.488ZM140.169 63V45.612H136.389V63H140.169Z" fill="white"/>
<defs>
<linearGradient id="paint0_linear_201_4" x1="7.30009" y1="33.0009" x2="7.30009" y2="2.20006" gradientUnits="userSpaceOnUse">
<stop offset="0.00953429" stop-color="#0083CC"/>
<stop offset="1" stop-color="#0094E7"/>
</linearGradient>
</defs>
</svg>
