<svg width="539" height="540" viewBox="0 0 539 540" fill="none" xmlns="http://www.w3.org/2000/svg">
<path opacity="0.38" d="M534.574 0.257996C535.635 0.257996 536.652 0.679423 537.402 1.42957C538.153 2.17971 538.574 3.19713 538.574 4.258V535.354C538.574 536.415 538.153 537.432 537.402 538.182C536.652 538.933 535.635 539.354 534.574 539.354H4.26801C3.20714 539.354 2.18972 538.933 1.43958 538.182C0.68943 537.432 0.268005 536.415 0.268005 535.354V4.258C0.268005 3.19713 0.68943 2.17971 1.43958 1.42957C2.18972 0.679423 3.20714 0.257996 4.26801 0.257996H534.574Z" fill="url(#paint0_linear_105_15)"/>
<defs>
<linearGradient id="paint0_linear_105_15" x1="538.58" y1="539.35" x2="0.269982" y2="0.26" gradientUnits="userSpaceOnUse">
<stop stop-color="#3E4856" stop-opacity="0"/>
<stop offset="0.5" stop-color="#313844" stop-opacity="0"/>
<stop offset="1" stop-color="#242A34"/>
</linearGradient>
</defs>
</svg>
